<svg width="40" height="40" viewBox="0 0 40 40" fill="none" xmlns="http://www.w3.org/2000/svg">
<path d="M38.9734 4.34238L35.6579 1.02604C34.288 -0.341445 32.0587 -0.342666 30.6866 1.02727L29.8938 1.8195L34.0371 5.96286C34.4949 6.42063 34.4949 7.1622 34.0371 7.61996C33.5794 8.07773 32.8378 8.07773 32.38 7.61996L28.237 3.4766L26.5796 5.13431L29.0661 7.61996C29.5239 8.07651 29.5239 8.8193 29.0661 9.27707C28.6084 9.73483 27.8668 9.73483 27.409 9.27707L24.9225 6.79141L21.6077 10.1065L29.8938 18.3923L38.9746 9.31399C40.3421 7.94284 40.3421 5.71354 38.9734 4.34238Z" fill="#F7F7F7"/>
<path d="M4.34264 38.9712C5.71502 40.3436 7.94402 40.3424 9.31486 38.9712L18.2934 29.9933L10.0073 21.7059L6.69219 25.0211L9.17845 27.5073C9.63621 27.9651 9.63621 28.7067 9.17845 29.1644C8.72069 29.6222 7.97911 29.6222 7.52135 29.1644L5.03509 26.6782L3.37768 28.3359L7.52135 32.4786C7.97911 32.9364 7.97911 33.678 7.52135 34.1357C7.06359 34.5935 6.32201 34.5935 5.86425 34.1357L1.72058 29.993L1.02814 30.6845C-0.342712 32.0556 -0.342712 34.2862 1.02814 35.657L4.34264 38.9712Z" fill="#F7F7F7"/>
<path d="M0.0787272 1.59094L4.49919 12.3002L12.2024 4.59662L1.59179 0.077886C1.1624 -0.0881293 0.671683 0.0162406 0.34423 0.343388C0.0170818 0.670536 -0.0869829 1.15943 0.0787272 1.59094Z" fill="#F7F7F7"/>
<path d="M32.3146 30.6604L35.6285 27.3462L14.1497 5.96289L10.8354 9.27709L32.3146 30.6604Z" fill="#F7F7F7"/>
<path d="M30.6578 32.3175L9.1787 10.9342L5.8645 14.2484L27.3424 35.6329L30.6578 32.3175Z" fill="#F7F7F7"/>
<path d="M38.9693 30.6869L37.2857 29.0033L28.9993 37.29L30.6838 38.9746C32.0464 40.3351 34.2788 40.3485 35.6551 38.9746C35.6551 38.9734 35.6551 38.9734 35.6551 38.9734L38.9693 35.6592C40.3414 34.2871 40.3457 32.063 38.9693 30.6869Z" fill="#F7F7F7"/>
</svg>
