<svg width="40" height="41" viewBox="0 0 40 41" fill="none" xmlns="http://www.w3.org/2000/svg">
<path d="M30.3503 18.2067C29.8879 17.5089 28.8644 17.5063 28.4002 18.2067L24.0605 24.7544H34.6899L30.3503 18.2067Z" fill="#F7F7F7"/>
<path d="M23.5156 38.8998C23.5156 39.5508 24.0403 40.0785 24.6875 40.0785H28.2812V27.1119H23.5156V38.8998Z" fill="#F7F7F7"/>
<path d="M30.625 40.0785H34.0625C34.7097 40.0785 35.2344 39.5508 35.2344 38.8998V27.1119H30.625V40.0785Z" fill="#F7F7F7"/>
<path d="M7.10925 25.9332H14.1405V28.2908H7.10925V25.9332Z" fill="#F7F7F7"/>
<path d="M36.4844 0H3.51562C1.57711 0 0 1.5864 0 3.53635V9.43025H40V3.53635C40 1.5864 38.4229 0 36.4844 0ZM5.9375 7.07269C5.29031 7.07269 4.76562 6.54491 4.76562 5.89391C4.76562 5.24291 5.29031 4.71513 5.9375 4.71513C6.58469 4.71513 7.10938 5.24291 7.10938 5.89391C7.10938 6.54491 6.58469 7.07269 5.9375 7.07269ZM10.625 7.07269C9.97781 7.07269 9.45312 6.54491 9.45312 5.89391C9.45312 5.24291 9.97781 4.71513 10.625 4.71513C11.2722 4.71513 11.7969 5.24291 11.7969 5.89391C11.7969 6.54491 11.2722 7.07269 10.625 7.07269ZM15.3125 7.07269C14.6653 7.07269 14.1406 6.54491 14.1406 5.89391C14.1406 5.24291 14.6653 4.71513 15.3125 4.71513C15.9597 4.71513 16.4844 5.24291 16.4844 5.89391C16.4844 6.54491 15.9597 7.07269 15.3125 7.07269ZM34.0625 7.07269H27.0312C26.3841 7.07269 25.8594 6.54491 25.8594 5.89391C25.8594 5.24291 26.3841 4.71513 27.0312 4.71513H34.0625C34.7097 4.71513 35.2344 5.24291 35.2344 5.89391C35.2344 6.54491 34.7097 7.07269 34.0625 7.07269Z" fill="#F7F7F7"/>
<path d="M0 31.8271C0 33.7771 1.57711 35.3635 3.51562 35.3635H21.1719V25.9332C21.1719 25.2327 21.376 24.5544 21.7623 23.9717C26.8902 16.2346 26.5166 16.7726 26.7561 16.503H5.9375C5.29031 16.503 4.76562 15.9752 4.76562 15.3242C4.76562 14.6732 5.29031 14.1454 5.9375 14.1454H27.0312C27.7522 14.1454 28.3152 14.7994 28.1835 15.5343C29.7108 14.9816 31.4038 15.5464 32.3002 16.899L36.9877 23.9717C37.374 24.5544 37.5781 25.2327 37.5781 25.9332V35.1874C38.9826 34.7236 40 33.393 40 31.8271V11.7878H0V31.8271ZM5.9375 18.8605H22.3438C22.9909 18.8605 23.5156 19.3883 23.5156 20.0393C23.5156 20.6903 22.9909 21.2181 22.3438 21.2181H5.9375C5.29031 21.2181 4.76562 20.6903 4.76562 20.0393C4.76562 19.3883 5.29031 18.8605 5.9375 18.8605ZM4.76562 24.7544C4.76562 24.1034 5.29031 23.5757 5.9375 23.5757H15.3125C15.9597 23.5757 16.4844 24.1034 16.4844 24.7544V29.4696C16.4844 30.1206 15.9597 30.6484 15.3125 30.6484H5.9375C5.29031 30.6484 4.76562 30.1206 4.76562 29.4696V24.7544Z" fill="#F7F7F7"/>
</svg>
