<svg width="40" height="41" viewBox="0 0 40 41" fill="none" xmlns="http://www.w3.org/2000/svg">
<path d="M27.0074 16.3658C28.3025 15.7624 28.9069 14.254 28.3888 12.9179C27.8708 11.5387 26.403 10.8492 25.0216 11.2371L22.6473 4.98775C22.302 4.08267 21.3091 3.73788 20.4888 4.03957C20.1867 4.16887 19.8845 4.38436 19.6686 4.72915L14.7473 12.7024L18.3304 22.141L27.3528 24.8562C27.7413 24.9855 28.0866 24.9424 28.432 24.8131C29.209 24.5115 29.7271 23.6064 29.3817 22.6582L27.0074 16.3658Z" fill="#F7F7F7"/>
<path d="M31.7549 11.6249C32.014 12.3145 32.791 12.6593 33.4817 12.4007L39.1369 10.2457C39.8276 9.98715 40.173 9.21137 39.914 8.52179C39.6549 7.83221 38.8779 7.48742 38.1872 7.74601L32.532 9.90095C31.8413 10.2026 31.4959 10.9784 31.7549 11.6249Z" fill="#F7F7F7"/>
<path d="M31.8849 0.117539C31.2374 -0.184152 30.4172 0.117539 30.115 0.76402L27.6544 6.23756C27.3522 6.88404 27.6544 7.70291 28.3019 8.0046C28.6472 8.1339 28.9926 8.1339 29.338 8.0477C29.6401 7.91841 29.9423 7.70291 30.0718 7.35812L32.5325 1.88459C32.8347 1.19501 32.5325 0.41923 31.8849 0.117539Z" fill="#F7F7F7"/>
<path d="M38.8355 18.4345L33.353 15.9779C32.7055 15.6762 31.8852 15.9779 31.5831 16.6244C31.2809 17.2709 31.5831 18.0897 32.2306 18.3914L37.7131 20.848C38.0585 20.9773 38.4038 20.9773 38.7492 20.8911C39.0514 20.7619 39.3535 20.5464 39.483 20.2016C39.7852 19.512 39.483 18.7362 38.8355 18.4345Z" fill="#F7F7F7"/>
<path d="M18.7617 33.5622C18.7617 33.5622 18.7185 33.5622 18.7617 33.5622C19.4092 33.2605 19.7546 32.5278 19.4956 31.8813C19.2797 31.3211 18.7185 30.9763 18.1573 31.0625C18.1141 31.0625 18.1141 31.0194 18.1573 31.0194C18.8049 30.7608 19.1502 30.0281 18.8912 29.3385C18.6753 28.7782 18.1141 28.4334 17.5529 28.5196C17.5098 28.5196 17.5098 28.4765 17.5529 28.4765C18.2005 28.218 18.5458 27.4853 18.2868 26.7957C18.0278 26.1492 17.2939 25.8044 16.6032 26.063C16.1284 26.2354 15.4376 26.5371 14.7901 26.7957L13.495 23.9081L17.0349 22.572L13.4519 13.2196L5.68137 16.1503C4.21361 16.7106 3.47973 18.2622 3.99776 19.7275L3.13437 20.0292C2.65951 20.2016 2.40049 20.7619 2.57317 21.1929L3.5229 23.7357C3.69557 24.2098 4.25678 24.4253 4.73164 24.2529L5.59503 23.9512C6.1994 25.3734 7.79666 26.063 9.26442 25.5027L9.56661 25.3734L10.8617 28.0887C10.2573 28.3042 9.73929 28.4765 9.4371 28.6058C8.57371 29.0368 7.7535 30.416 7.23546 31.5366C7.06279 31.9244 6.71743 32.2692 6.28574 32.4416L1.19175 34.4673C0.242025 34.8552 -0.232838 35.9326 0.112517 36.8808L1.19175 39.7253C1.53711 40.6735 2.61634 41.1907 3.60924 40.8459L8.78956 38.9495C9.09175 38.8202 9.4371 38.8202 9.78246 38.8633C12.1568 39.0788 15.9557 37.3549 18.1573 36.536C18.8912 36.2343 19.3661 36.105 19.3661 36.105C20.0136 35.8464 20.359 35.1138 20.0999 34.4242C19.9273 33.8208 19.3229 33.5191 18.7617 33.5622Z" fill="#F7F7F7"/>
</svg>
