<svg width="20" height="18" viewBox="0 0 20 18" fill="none" xmlns="http://www.w3.org/2000/svg">
<path d="M16.7857 0.785414C15.4643 0.785414 14.3279 1.5872 13.8343 2.7297L9.3275 0.271486C8.70286 -0.0692285 7.72643 -0.0699429 7.10321 0.270057L1.12607 3.53041C0.494643 3.8747 0 4.70934 0 5.43077V12.5679C0 13.2893 0.494643 14.1236 1.12607 14.4683L7.10357 17.7286C7.415 17.8986 7.815 17.9836 8.21464 17.9836C8.61429 17.9836 9.01393 17.8986 9.32536 17.7286L15.3025 14.4683C15.9339 14.1243 16.4286 13.2904 16.4286 12.5704V7.19291C16.5461 7.20577 16.665 7.21399 16.7857 7.21399C18.5579 7.21399 20 5.7722 20 3.9997C20 2.2272 18.5579 0.785414 16.7857 0.785414ZM15.7143 7.07006V12.5701C15.7143 13.0283 15.3621 13.6222 14.9604 13.8415L8.98321 17.1018C8.57357 17.3251 7.85464 17.3251 7.44536 17.1018L1.46821 13.8415C1.06643 13.6226 0.714286 13.0276 0.714286 12.5683V5.43077C0.714286 4.97149 1.06643 4.37649 1.46821 4.15756L7.44536 0.8972C7.85464 0.673271 8.57464 0.674343 8.98536 0.898629L13.625 3.42899C13.5918 3.6147 13.5714 3.8047 13.5714 3.9997C13.5714 5.39899 14.4718 6.58899 15.7225 7.02934C15.7207 7.04327 15.7143 7.05577 15.7143 7.07006ZM16.7857 6.4997C15.4071 6.4997 14.2857 5.37791 14.2857 3.9997C14.2857 2.62149 15.4071 1.4997 16.7857 1.4997C18.1643 1.4997 19.2857 2.62149 19.2857 3.9997C19.2857 5.37791 18.1643 6.4997 16.7857 6.4997Z" fill="#F7F7F7"/>
<path d="M16.7857 2.21429C16.1949 2.21429 15.7142 2.69501 15.7142 3.28572C15.7142 3.56108 15.8214 3.81001 15.9928 4.00001C15.8214 4.19001 15.7142 4.43894 15.7142 4.71429C15.7142 5.30501 16.1949 5.78572 16.7857 5.78572C17.3764 5.78572 17.8571 5.30501 17.8571 4.71429C17.8571 4.43894 17.7499 4.19001 17.5785 4.00001C17.7499 3.81001 17.8571 3.56108 17.8571 3.28572C17.8571 2.69465 17.3764 2.21429 16.7857 2.21429ZM16.7857 2.92858C16.9824 2.92858 17.1428 3.08858 17.1428 3.28572C17.1428 3.48287 16.9824 3.64287 16.7857 3.64287C16.5889 3.64287 16.4285 3.48287 16.4285 3.28572C16.4285 3.08858 16.5889 2.92858 16.7857 2.92858ZM16.7857 5.07144C16.5889 5.07144 16.4285 4.91144 16.4285 4.71429C16.4285 4.51715 16.5889 4.35715 16.7857 4.35715C16.9824 4.35715 17.1428 4.51715 17.1428 4.71429C17.1428 4.91144 16.9824 5.07144 16.7857 5.07144Z" fill="#F7F7F7"/>
<path d="M8.2143 9.84786C8.2143 10.4425 7.63002 10.9643 6.9643 10.9643C6.29859 10.9643 5.7143 10.4425 5.7143 9.84786V6.5H3.92859V9.84786C3.92859 11.4479 5.29037 12.75 6.9643 12.75C8.63823 12.75 10 11.4479 10 9.84786V6.5H8.2143V9.84786ZM9.64287 10.0714L9.4643 7.03571L9.28573 7.21429V9.84786C9.28573 11.0543 8.2443 12.0357 6.9643 12.0357C5.6843 12.0357 4.64287 11.0543 4.64287 9.84786V7.21429L4.4643 7.03571L4.28573 9.89286C4.28573 10.885 5.89966 12.2143 6.9643 12.2143C8.02895 12.2143 9.64287 11.0636 9.64287 10.0714Z" fill="#F7F7F7"/>
<path d="M10.7142 12.5714H12.4999V6.5H10.7142V12.5714ZM11.4285 7.21429L11.2499 12.2143L11.7857 11.8571H11.4285V7.21429Z" fill="#F7F7F7"/>
</svg>
