<svg width="40" height="40" viewBox="0 0 40 40" fill="none" xmlns="http://www.w3.org/2000/svg">
<path d="M8.46897 29.6551H4.82759C4.64468 29.6551 4.46926 29.7278 4.33993 29.8571C4.21059 29.9865 4.13793 30.1619 4.13793 30.3448V35.862H0V40H9.65517V35.862H5.51724V31.0344H9.78621C12.1932 33.253 15.3472 34.484 18.6207 34.4827V21.3793H5.51724C5.51483 24.3962 6.55791 27.3207 8.46897 29.6551Z" fill="white"/>
<path d="M5.51724 8.96552V4.13793H9.65517V0H0V4.13793H4.13793V9.65517C4.13793 9.83808 4.21059 10.0135 4.33993 10.1428C4.46926 10.2722 4.64468 10.3448 4.82759 10.3448H8.46897C6.55791 12.6793 5.51483 15.6038 5.51724 18.6207H18.6207V5.51724C15.3472 5.51591 12.1932 6.74698 9.78621 8.96552H5.51724Z" fill="white"/>
<path d="M30.3452 4.13793H34.4831V8.96552H30.2141C27.8071 6.74698 24.6531 5.51591 21.3796 5.51724V18.6207H34.4831C34.4855 15.6038 33.4424 12.6793 31.5314 10.3448H35.1727C35.3556 10.3448 35.5311 10.2722 35.6604 10.1428C35.7897 10.0135 35.8624 9.83808 35.8624 9.65517V4.13793H40.0003V0H30.3452V4.13793Z" fill="white"/>
<path d="M35.8624 30.3448C35.8624 30.1619 35.7897 29.9865 35.6604 29.8571C35.5311 29.7278 35.3556 29.6551 35.1727 29.6551H31.5314C33.4424 27.3207 34.4855 24.3962 34.4831 21.3793H21.3796V34.4827C24.6531 34.484 27.8071 33.253 30.2141 31.0344H34.4831V35.862H30.3452V40H40.0003V35.862H35.8624V30.3448Z" fill="white"/>
</svg>
