<svg width="40" height="38" viewBox="0 0 40 38" fill="none" xmlns="http://www.w3.org/2000/svg">
<path d="M32.8672 13.1484C32.8672 14.0156 32.7735 14.8359 32.5859 15.6562C31.7657 19.4531 29.2344 22.6405 25.8359 24.3516C25.8594 24.4453 25.8594 24.5156 25.8594 24.6095C25.8594 29.1916 23.4098 33.231 20 35.3906C22.0156 36.7266 24.4297 37.5001 27.0312 37.5001C34.1329 37.5001 40 31.7109 40 24.6095C40 19.6172 37.0391 15.2578 32.8672 13.1484Z" fill="#F7F7F7"/>
<path d="M19.9999 25.7812C18.781 25.7812 17.6092 25.6171 16.5077 25.2889C16.6953 28.125 18.0077 30.656 19.9999 32.4374C21.992 30.6561 23.3045 28.125 23.4921 25.2889C22.3906 25.6171 21.2187 25.7812 19.9999 25.7812Z" fill="#F7F7F7"/>
<path d="M14.1406 24.6094C14.1406 24.5155 14.1406 24.4453 14.1641 24.3516C10.7656 22.6406 8.2343 19.4531 7.41406 15.6562C7.22648 14.8359 7.13281 14.0156 7.13281 13.1484C2.96086 15.2578 0 19.6172 0 24.6094C0 31.7109 5.86711 37.5 12.9688 37.5C15.5703 37.5 17.9844 36.7265 20 35.3906C16.6004 33.2373 14.1406 29.2032 14.1406 24.6094Z" fill="#F7F7F7"/>
<path d="M9.59363 14.6251C10.1093 17.6719 11.9139 20.2734 14.4452 21.8439C14.9842 19.3361 16.2732 17.1094 18.0545 15.3751C15.3557 13.8568 12.1359 13.7209 9.59363 14.6251Z" fill="#F7F7F7"/>
<path d="M30.406 14.625C27.8667 13.722 24.6475 13.8549 21.9451 15.375C23.7263 17.1094 25.0154 19.336 25.5544 21.8438C28.0857 20.2734 29.8903 17.6718 30.406 14.625Z" fill="#F7F7F7"/>
<path d="M19.9999 23.4375C21.1952 23.4375 22.3202 23.2499 23.3749 22.875C22.9765 20.4608 21.7577 18.3281 19.9999 16.7811C18.2421 18.3281 17.0232 20.4608 16.6249 22.875C17.6796 23.2499 18.8046 23.4375 19.9999 23.4375Z" fill="#F7F7F7"/>
<path d="M20 13.828C23.9513 11.2089 28.9732 11.0799 32.8672 13.1484C32.8906 13.0548 32.8906 12.9844 32.8906 12.8906C32.8906 5.78898 27.1016 0 20 0C12.8984 0 7.10938 5.78898 7.10938 12.8906C7.10938 12.9843 7.10938 13.0547 7.13281 13.1484C11.0214 11.0827 16.0437 11.2058 20 13.828Z" fill="#F7F7F7"/>
</svg>
