<svg width="20" height="20" viewBox="0 0 20 20" fill="none" xmlns="http://www.w3.org/2000/svg">
<path d="M8.26418 1.02069C8.18719 0.903777 8.05664 0.833347 7.91668 0.833191H0.41668C0.186563 0.833191 8.21124e-09 1.01975 8.21124e-09 1.24987V18.7499C-3.90543e-05 18.9479 0.139297 19.1186 0.33332 19.1582C0.360742 19.1637 0.388672 19.1665 0.416641 19.1665C0.582852 19.1671 0.733477 19.0689 0.799961 18.9165L8.29996 1.41651C8.35582 1.28702 8.34234 1.13807 8.26418 1.02069Z" fill="#F44336"/>
<path d="M10.3861 7.34319C10.3223 7.18612 10.1698 7.08331 10.0003 7.08319C9.83256 7.08315 9.68115 7.18362 9.61607 7.33819L6.28275 15.2549C6.19346 15.467 6.29303 15.7113 6.5051 15.8006C6.55631 15.8221 6.61135 15.8332 6.66689 15.8332H9.71107L10.8603 18.8966C10.9213 19.059 11.0767 19.1666 11.2503 19.1666H14.5836C14.8137 19.1664 15.0001 18.9798 15 18.7496C14.9999 18.696 14.9896 18.6429 14.9694 18.5932L10.3861 7.34319Z" fill="#F44336"/>
<path d="M19.5834 0.833133H12.0834C11.8533 0.832312 11.6661 1.01821 11.6653 1.24833C11.6651 1.30618 11.6769 1.36344 11.7001 1.41645L19.2001 18.9165C19.2665 19.0688 19.4172 19.167 19.5834 19.1665C19.6113 19.1664 19.6393 19.1636 19.6667 19.1581C19.8607 19.1185 20.0001 18.9478 20 18.7498V1.24981C20.0001 1.0197 19.8135 0.833133 19.5834 0.833133Z" fill="#F44336"/>
</svg>
