<svg width="115" height="46" viewBox="0 0 115 46" fill="none" xmlns="http://www.w3.org/2000/svg">
<g filter="url(#filter0_f_1_41)">
<path d="M36 23C36 30.1797 30.1797 36 23 36C15.8203 36 10 30.1797 10 23C10 15.8203 15.8203 10 23 10C30.1797 10 36 15.8203 36 23Z" fill="url(#paint0_linear_1_41)"/>
</g>
<g filter="url(#filter1_ii_1_41)">
<path d="M38 23C38 31.2843 31.2843 38 23 38C14.7157 38 8 31.2843 8 23C8 14.7157 14.7157 8 23 8C31.2843 8 38 14.7157 38 23Z" fill="url(#paint1_linear_1_41)"/>
</g>
<path d="M18.7791 29L15.3501 16.6364H17.3121L19.7209 26.2109H19.8356L22.3409 16.6364H24.2848L26.7901 26.217H26.9048L29.3075 16.6364H31.2756L27.8406 29H25.9631L23.3612 19.7393H23.2646L20.6626 29H18.7791Z" fill="white"/>
<path d="M46.7429 28L43.3622 15.6364H44.8835L47.4673 25.706H47.5881L50.2202 15.6364H51.9105L54.5426 25.706H54.6634L57.2472 15.6364H58.7685L55.3878 28H53.8423L51.1136 18.1477H51.017L48.2884 28H46.7429ZM63.4652 28.1932C62.5717 28.1932 61.801 27.996 61.1531 27.6016C60.5091 27.2031 60.0121 26.6477 59.6619 25.9354C59.3158 25.219 59.1428 24.3859 59.1428 23.4361C59.1428 22.4863 59.3158 21.6491 59.6619 20.9247C60.0121 20.1963 60.4991 19.6288 61.1229 19.2223C61.7507 18.8118 62.4832 18.6065 63.3203 18.6065C63.8033 18.6065 64.2802 18.687 64.7511 18.848C65.2219 19.009 65.6506 19.2706 66.0369 19.6328C66.4233 19.991 66.7312 20.4659 66.9606 21.0575C67.19 21.6491 67.3047 22.3776 67.3047 23.2429V23.8466H60.157V22.6151H65.8558C65.8558 22.0919 65.7512 21.625 65.5419 21.2145C65.3366 20.804 65.0429 20.48 64.6605 20.2425C64.2822 20.0051 63.8355 19.8864 63.3203 19.8864C62.7528 19.8864 62.2618 20.0272 61.8473 20.3089C61.4368 20.5866 61.1209 20.9489 60.8995 21.3956C60.6781 21.8423 60.5675 22.3213 60.5675 22.8324V23.6534C60.5675 24.3537 60.6882 24.9473 60.9297 25.4343C61.1752 25.9173 61.5153 26.2855 61.9499 26.5391C62.3846 26.7886 62.8897 26.9134 63.4652 26.9134C63.8395 26.9134 64.1776 26.861 64.4794 26.7564C64.7853 26.6477 65.0489 26.4867 65.2702 26.2734C65.4916 26.0561 65.6626 25.7865 65.7834 25.4645L67.1598 25.8509C67.0149 26.3177 66.7714 26.7282 66.4293 27.0824C66.0872 27.4325 65.6647 27.7062 65.1616 27.9034C64.6585 28.0966 64.093 28.1932 63.4652 28.1932ZM69.6651 28V15.6364H71.0898V20.2003H71.2106C71.3152 20.0393 71.4601 19.834 71.6452 19.5845C71.8344 19.331 72.104 19.1056 72.4542 18.9084C72.8084 18.7071 73.2873 18.6065 73.891 18.6065C74.6718 18.6065 75.36 18.8017 75.9556 19.1921C76.5513 19.5825 77.0161 20.1359 77.3501 20.8523C77.6842 21.5687 77.8512 22.4138 77.8512 23.3878C77.8512 24.3698 77.6842 25.221 77.3501 25.9414C77.0161 26.6578 76.5533 27.2132 75.9616 27.6076C75.37 27.998 74.6879 28.1932 73.9151 28.1932C73.3195 28.1932 72.8426 28.0946 72.4844 27.8974C72.1262 27.6961 71.8505 27.4687 71.6573 27.2152C71.4641 26.9576 71.3152 26.7443 71.2106 26.5753H71.0415V28H69.6651ZM71.0657 23.3636C71.0657 24.0639 71.1683 24.6817 71.3736 25.217C71.5788 25.7482 71.8787 26.1648 72.2731 26.4666C72.6675 26.7644 73.1504 26.9134 73.7219 26.9134C74.3176 26.9134 74.8146 26.7564 75.2131 26.4425C75.6155 26.1245 75.9174 25.6979 76.1186 25.1626C76.3239 24.6233 76.4265 24.0237 76.4265 23.3636C76.4265 22.7116 76.3259 22.1241 76.1246 21.6009C75.9274 21.0736 75.6276 20.6571 75.2251 20.3512C74.8267 20.0413 74.3256 19.8864 73.7219 19.8864C73.1424 19.8864 72.6554 20.0333 72.261 20.3271C71.8666 20.6168 71.5688 21.0233 71.3675 21.5465C71.1663 22.0657 71.0657 22.6714 71.0657 23.3636ZM84.0632 18.7273V19.9347H79.2578V18.7273H84.0632ZM80.6584 16.5057H82.0831V25.3438C82.0831 25.7462 82.1415 26.0481 82.2582 26.2493C82.3789 26.4465 82.5318 26.5793 82.717 26.6477C82.9061 26.7121 83.1054 26.7443 83.3146 26.7443C83.4716 26.7443 83.6004 26.7363 83.701 26.7202C83.8016 26.7 83.8821 26.6839 83.9425 26.6719L84.2322 27.9517C84.1357 27.9879 84.0008 28.0241 83.8278 28.0604C83.6547 28.1006 83.4354 28.1207 83.1697 28.1207C82.7673 28.1207 82.3729 28.0342 81.9865 27.8612C81.6042 27.6881 81.2862 27.4245 81.0327 27.0703C80.7831 26.7161 80.6584 26.2694 80.6584 25.7301V16.5057ZM89.9945 28.1932C89.101 28.1932 88.3303 27.996 87.6824 27.6016C87.0384 27.2031 86.5414 26.6477 86.1912 25.9354C85.8451 25.219 85.6721 24.3859 85.6721 23.4361C85.6721 22.4863 85.8451 21.6491 86.1912 20.9247C86.5414 20.1963 87.0283 19.6288 87.6522 19.2223C88.28 18.8118 89.0125 18.6065 89.8496 18.6065C90.3326 18.6065 90.8095 18.687 91.2804 18.848C91.7512 19.009 92.1799 19.2706 92.5662 19.6328C92.9526 19.991 93.2605 20.4659 93.4899 21.0575C93.7193 21.6491 93.834 22.3776 93.834 23.2429V23.8466H86.6863V22.6151H92.3851C92.3851 22.0919 92.2805 21.625 92.0712 21.2145C91.8659 20.804 91.5721 20.48 91.1898 20.2425C90.8115 20.0051 90.3648 19.8864 89.8496 19.8864C89.2821 19.8864 88.7911 20.0272 88.3766 20.3089C87.9661 20.5866 87.6502 20.9489 87.4288 21.3956C87.2074 21.8423 87.0968 22.3213 87.0968 22.8324V23.6534C87.0968 24.3537 87.2175 24.9473 87.459 25.4343C87.7045 25.9173 88.0446 26.2855 88.4792 26.5391C88.9139 26.7886 89.419 26.9134 89.9945 26.9134C90.3688 26.9134 90.7069 26.861 91.0087 26.7564C91.3146 26.6477 91.5782 26.4867 91.7995 26.2734C92.0209 26.0561 92.1919 25.7865 92.3127 25.4645L93.6891 25.8509C93.5442 26.3177 93.3007 26.7282 92.9586 27.0824C92.6165 27.4325 92.194 27.7062 91.6909 27.9034C91.1878 28.0966 90.6223 28.1932 89.9945 28.1932ZM99.7683 28.1932C98.899 28.1932 98.1504 27.9879 97.5225 27.5774C96.8947 27.1669 96.4118 26.6014 96.0737 25.881C95.7356 25.1606 95.5666 24.3376 95.5666 23.4119C95.5666 22.4702 95.7396 21.6391 96.0858 20.9187C96.4359 20.1942 96.9229 19.6288 97.5467 19.2223C98.1745 18.8118 98.907 18.6065 99.7441 18.6065C100.396 18.6065 100.984 18.7273 101.507 18.9688C102.03 19.2102 102.459 19.5483 102.793 19.983C103.127 20.4176 103.334 20.9247 103.415 21.5043H101.99C101.881 21.0817 101.64 20.7074 101.265 20.3814C100.895 20.0514 100.396 19.8864 99.7683 19.8864C99.2129 19.8864 98.7259 20.0312 98.3074 20.321C97.8928 20.6068 97.5688 21.0112 97.3354 21.5344C97.106 22.0536 96.9913 22.6634 96.9913 23.3636C96.9913 24.08 97.104 24.7038 97.3294 25.2351C97.5588 25.7663 97.8807 26.1789 98.2953 26.4727C98.7138 26.7665 99.2048 26.9134 99.7683 26.9134C100.139 26.9134 100.475 26.849 100.776 26.7202C101.078 26.5914 101.334 26.4062 101.543 26.1648C101.752 25.9233 101.901 25.6335 101.99 25.2955H103.415C103.334 25.8428 103.135 26.3358 102.817 26.7745C102.503 27.2092 102.086 27.5553 101.567 27.8129C101.052 28.0664 100.452 28.1932 99.7683 28.1932ZM106.922 22.4219V28H105.497V15.6364H106.922V20.1761H107.043C107.26 19.6972 107.586 19.3169 108.021 19.0352C108.459 18.7494 109.043 18.6065 109.771 18.6065C110.403 18.6065 110.957 18.7333 111.432 18.9869C111.907 19.2364 112.275 19.6207 112.536 20.1399C112.802 20.6551 112.935 21.3111 112.935 22.108V28H111.51V22.2045C111.51 21.468 111.319 20.8986 110.937 20.4961C110.558 20.0896 110.033 19.8864 109.361 19.8864C108.894 19.8864 108.476 19.985 108.105 20.1822C107.739 20.3794 107.449 20.6671 107.236 21.0455C107.027 21.4238 106.922 21.8826 106.922 22.4219Z" fill="white"/>
<defs>
<filter id="filter0_f_1_41" x="0" y="0" width="46" height="46" filterUnits="userSpaceOnUse" color-interpolation-filters="sRGB">
<feFlood flood-opacity="0" result="BackgroundImageFix"/>
<feBlend mode="normal" in="SourceGraphic" in2="BackgroundImageFix" result="shape"/>
<feGaussianBlur stdDeviation="5" result="effect1_foregroundBlur_1_41"/>
</filter>
<filter id="filter1_ii_1_41" x="4" y="4" width="38" height="38" filterUnits="userSpaceOnUse" color-interpolation-filters="sRGB">
<feFlood flood-opacity="0" result="BackgroundImageFix"/>
<feBlend mode="normal" in="SourceGraphic" in2="BackgroundImageFix" result="shape"/>
<feColorMatrix in="SourceAlpha" type="matrix" values="0 0 0 0 0 0 0 0 0 0 0 0 0 0 0 0 0 0 127 0" result="hardAlpha"/>
<feOffset dx="-4" dy="-4"/>
<feGaussianBlur stdDeviation="3.5"/>
<feComposite in2="hardAlpha" operator="arithmetic" k2="-1" k3="1"/>
<feColorMatrix type="matrix" values="0 0 0 0 0.212118 0 0 0 0 0.267986 0 0 0 0 0.620833 0 0 0 1 0"/>
<feBlend mode="normal" in2="shape" result="effect1_innerShadow_1_41"/>
<feColorMatrix in="SourceAlpha" type="matrix" values="0 0 0 0 0 0 0 0 0 0 0 0 0 0 0 0 0 0 127 0" result="hardAlpha"/>
<feOffset dx="4" dy="4"/>
<feGaussianBlur stdDeviation="2.5"/>
<feComposite in2="hardAlpha" operator="arithmetic" k2="-1" k3="1"/>
<feColorMatrix type="matrix" values="0 0 0 0 0.703698 0 0 0 0 0.738434 0 0 0 0 0.954167 0 0 0 1 0"/>
<feBlend mode="normal" in2="effect1_innerShadow_1_41" result="effect2_innerShadow_1_41"/>
</filter>
<linearGradient id="paint0_linear_1_41" x1="30.3667" y1="10" x2="12.6" y2="33.4" gradientUnits="userSpaceOnUse">
<stop stop-color="#AA12E0"/>
<stop offset="1" stop-color="#6D12E0"/>
</linearGradient>
<linearGradient id="paint1_linear_1_41" x1="39.3284" y1="30.5487" x2="11.4894" y2="11.7811" gradientUnits="userSpaceOnUse">
<stop offset="0.0001" stop-color="#C6CFFF"/>
<stop offset="0.635417" stop-color="#7B8EFF"/>
<stop offset="1" stop-color="#6174FF"/>
</linearGradient>
</defs>
</svg>
